<?xml version="1.0" encoding="utf-8"?>
<!-- Generator: Adobe Illustrator 15.0.0, SVG Export Plug-In . SVG Version: 6.00 Build 0)  -->
<!DOCTYPE svg PUBLIC "-//W3C//DTD SVG 1.1//EN" "http://www.w3.org/Graphics/SVG/1.1/DTD/svg11.dtd">
<svg version="1.1" id="Layer_2" xmlns="http://www.w3.org/2000/svg" xmlns:xlink="http://www.w3.org/1999/xlink" x="0px" y="0px"
	 width="400.666px" height="400.666px" viewBox="420.666 0 400.666 400.666" enable-background="new 420.666 0 400.666 400.666"
	 xml:space="preserve">
<filter  id="AI_Shadow_1" filterUnits="objectBoundingBox">
	<feGaussianBlur  result="blur" in="SourceAlpha" stdDeviation="5"></feGaussianBlur>
	<feOffset  dy="0" result="offsetBlurredAlpha" in="blur" dx="0"></feOffset>
	<feMerge>
		<feMergeNode  in="offsetBlurredAlpha"></feMergeNode>
		<feMergeNode  in="SourceGraphic"></feMergeNode>
	</feMerge>
</filter>
<g filter="url(#AI_Shadow_1)">
	<polygon fill="#FF2A00" points="621.047,332.311 615.208,344.439 627.208,344.439 	"/>
</g>
<g filter="url(#AI_Shadow_1)">
	<polygon fill="#FFFFFF" points="714.938,294.239 719.409,307.01 727.938,298.481 	"/>
</g>
<g filter="url(#AI_Shadow_1)">
	<polygon fill="#FFFFFF" points="526.604,294.771 514.812,298.898 522.686,306.771 	"/>
</g>
<g filter="url(#AI_Shadow_1)">
	<polygon fill="#FF2A00" points="488.957,200.382 476.957,194.604 476.957,206.477 	"/>
</g>
<g filter="url(#AI_Shadow_1)">
	<polygon fill="#FFFFFF" points="526.667,106.041 522.467,94.041 514.453,102.055 	"/>
</g>
<g filter="url(#AI_Shadow_1)">
	<polygon fill="#FFFFFF" points="715.397,105.894 727.185,101.767 719.312,93.894 	"/>
</g>
<g filter="url(#AI_Shadow_1)">
	<polygon fill="#FF2A00" points="752.977,200.285 765.106,206.125 765.107,194.125 	"/>
</g>
<g filter="url(#AI_Shadow_1)">
	<polygon fill="#FF2A00" points="621.285,68.022 627.124,55.893 615.124,55.892 	"/>
</g>
<g>
	
		<image overflow="visible" opacity="0.75" width="55" height="283" xlink:href="C6312F38.png"  transform="matrix(1 0 0 1 596.8333 61.8328)">
	</image>
	<g>
		<g>
			<polyline fill="#D47B59" points="620.999,200.539 620.999,68.729 603.056,200.539 			"/>
			<polyline fill="#EE0000" points="620.999,200.539 620.999,68.729 638.943,200.539 			"/>
			<polyline fill="#FFFFFF" points="620.999,200.728 620.999,332.54 603.056,200.728 			"/>
			<polyline fill="#BBBBBB" points="620.999,200.728 620.999,332.54 638.943,200.728 			"/>
		</g>
	</g>
</g>
</svg>
